<?xml version="1.0" encoding="UTF-8"?><svg id="Layer_1" xmlns="http://www.w3.org/2000/svg" viewBox="0 0 240 41.5"><defs><style>.cls-1{fill:#fff;}</style></defs><path class="cls-1" d="M6.81,7.85H0V1.82H20.63V7.85h-6.85V31.97H6.81V7.85Z"/><path class="cls-1" d="M36.71,17.2c-.9-.22-1.47-.3-2.24-.3-3.7,0-6.07,1.85-6.07,6.98v8.1h-6.59V11.21h6.59v3.36c.95-1.94,3.41-3.71,6.42-3.71,.69,0,1.29,.09,1.9,.35v5.99Z"/><path class="cls-1" d="M43.83,.14c2.41,0,4.26,1.85,4.26,4.18s-1.86,4.18-4.26,4.18-4.22-1.89-4.22-4.18S41.46,.14,43.83,.14Zm-3.28,11.07h6.59V31.97h-6.59V11.21Z"/><path class="cls-1" d="M60.11,14.18c1.03-1.9,3.45-3.49,6.68-3.49,5.51,0,9.82,4.69,9.82,10.9s-4.31,10.9-9.82,10.9c-3.23,0-5.64-1.59-6.68-3.49v12.36h-6.59V11.21h6.59v2.97Zm0,7.41c0,2.89,1.98,5.3,4.96,5.3s4.95-2.41,4.95-5.3-1.98-5.3-4.95-5.3-4.96,2.41-4.96,5.3Z"/><path class="cls-1" d="M81.06,1.82h12.62c6.68,0,10.98,5.04,10.98,10.9s-4.31,10.9-10.98,10.9h-5.64v8.36h-6.98V1.82Zm16.58,10.9c0-2.8-1.89-5.21-4.82-5.21h-4.78v10.42h4.78c2.93,0,4.82-2.41,4.82-5.21Z"/><path class="cls-1" d="M108.34,1.82h6.59V31.97h-6.59V1.82Z"/><path class="cls-1" d="M142.29,11.21V31.97h-6.59v-2.93c-1.03,1.9-3.44,3.45-6.63,3.45-5.51,0-9.82-4.7-9.82-10.9s4.31-10.9,9.82-10.9c3.06,0,5.51,1.46,6.63,3.49v-2.97h6.59Zm-6.59,10.38c0-2.84-1.98-5.3-4.95-5.3s-4.95,2.46-4.95,5.3,1.98,5.3,4.95,5.3,4.95-2.41,4.95-5.3Z"/><path class="cls-1" d="M147.91,11.21h6.59v3.01c1.16-2.24,3.58-3.53,6.85-3.53,2.84,0,4.65,.99,5.77,2.37,1.29,1.59,1.63,3.62,1.63,6.59v12.32h-6.59v-10.64c0-2.93-.9-5.04-3.62-5.04s-4.05,2.07-4.05,5.26v10.42h-6.59V11.21Z"/><path class="cls-1" d="M174.07,11.21h6.59v3.01c1.16-2.24,3.58-3.53,6.85-3.53,2.84,0,4.65,.99,5.77,2.37,1.29,1.59,1.63,3.62,1.63,6.59v12.32h-6.59v-10.64c0-2.93-.9-5.04-3.62-5.04s-4.05,2.07-4.05,5.26v10.42h-6.59V11.21Z"/><path class="cls-1" d="M205.53,23.18c0,2.5,1.16,4.61,4.48,4.61,2.33,0,3.4-1.03,3.88-2.37h6.46c-.69,3.92-4.31,7.11-10.25,7.11-7.28,0-11.2-4.82-11.2-10.94s3.88-10.94,10.9-10.94,10.81,4.39,10.81,10.16c0,.82-.04,1.25-.21,2.37h-14.86Zm0-3.79h8.61c0-2.5-1.76-4.09-4.31-4.09s-4.31,1.46-4.31,4.09Z"/><path class="cls-1" d="M240,17.2c-.9-.22-1.47-.3-2.24-.3-3.7,0-6.07,1.85-6.07,6.98v8.1h-6.59V11.21h6.59v3.36c.95-1.94,3.41-3.71,6.42-3.71,.69,0,1.29,.09,1.9,.35v5.99Z"/></svg>