<?xml version="1.0" encoding="UTF-8"?><svg id="Layer_1" xmlns="http://www.w3.org/2000/svg" viewBox="0 0 200 200"><defs><style>.cls-1{stroke-dasharray:0 0 10 8;stroke-width:5.26px;}.cls-1,.cls-2,.cls-3{fill:none;stroke:#484751;stroke-linecap:round;stroke-linejoin:round;}.cls-2{stroke-width:5.26px;}.cls-3{stroke-width:5.26px;}</style></defs><g id="_3"><path class="cls-1" d="M58.62,111.48s-.79-13.89,15.36-14.09c14.89-.19,31.77,17.76,44.97,17.72,17.53-.06,21.78-7.09,21.78-14.33"/><polyline class="cls-3" points="77.46 161.04 77.46 168.3 70.49 164.9"/><line class="cls-3" x1="77.46" y1="107.03" x2="77.46" y2="161.04"/><polyline class="cls-3" points="70.49 164.9 36.03 148.05 36.03 54.65 77.46 74.9 77.46 88.2"/><line class="cls-3" x1="118.89" y1="104.86" x2="118.89" y2="70.2"/><polyline class="cls-3" points="99.67 157.45 118.89 148.05 118.89 124.36"/><line class="cls-3" x1="77.46" y1="168.3" x2="99.67" y2="157.45"/><polyline class="cls-3" points="118.89 54.65 114.67 56.72 77.46 74.9"/><polyline class="cls-3" points="160.32 77.95 160.32 168.3 118.89 148.05"/><line class="cls-2" x1="52.93" y1="120.25" x2="62.54" y2="129.86"/><line class="cls-2" x1="62.54" y1="120.25" x2="52.93" y2="129.86"/><g><path class="cls-3" d="M163.97,52.65c0,3.28-.75,6.38-2.1,9.15-3.4,6.99-18.86,28.62-18.86,28.62,0,0-15.1-21.39-18.59-28.09-1.51-2.9-2.37-6.19-2.37-9.68,0-11.57,9.38-20.96,20.96-20.96s20.96,9.38,20.96,20.96Z"/><circle class="cls-3" cx="143.01" cy="52.65" r="8.54"/></g></g></svg>