<?xml version="1.0" encoding="UTF-8"?><svg id="Layer_1" xmlns="http://www.w3.org/2000/svg" viewBox="0 0 200 200"><defs><style>.cls-1{fill:none;stroke:#484751;stroke-linecap:round;stroke-linejoin:round;stroke-width:5.26px;}</style></defs><g id="_"><path class="cls-1" d="M100.17,51.83h-.02c-18.2-.06-34.54,7.92-45.72,20.56-9.4,10.68-15.14,24.68-15.18,40.02-.04,16.6,6.58,31.68,17.34,42.66,11,11.22,26.28,18.2,43.24,18.26h.34c1,0,1.98-.02,2.96-.08,.72-.04,1.42-.1,2.12-.16,.32-.02,.64-.04,.96-.08,.52-.04,1.02-.1,1.52-.18,3.6-.44,7.1-1.22,10.46-2.28,.72-.22,1.44-.46,2.16-.72,2.1-.74,4.16-1.6,6.14-2.58,.4-.18,.78-.38,1.18-.58,5.7-2.92,10.86-6.72,15.34-11.2,10.92-10.92,17.7-26.04,17.74-42.72,.03-11.73-3.26-22.7-9.01-32.02"/><path class="cls-1" d="M100.17,51.83h-.02c-7.54,0-18.96,11.46-26.04,28.68-3.84,9.28-6.42,20.24-6.44,31.98-.04,13.26,3.04,25.52,7.54,35.52,1.92,4.26,4.08,8.1,6.38,11.42"/><path class="cls-1" d="M132.34,112.49c0-2.42-.12-4.81-.33-7.16"/><path class="cls-1" d="M132.34,112.67c-.09,33.55-20.1,60.7-32.5,60.66"/><path class="cls-1" d="M121.11,81.81c-6.52,1.48-13.58,2.34-20.94,2.32h-.08c-9.3-.02-18.1-1.38-25.98-3.62-.54-.14-1.06-.28-1.58-.44-6.9-2.04-13.02-4.74-18.1-7.68,11.18-12.64,27.52-20.62,45.72-20.56h.02"/><path class="cls-1" d="M143.02,155.48c-11.05,11.06-26.32,17.89-43.17,17.84-16.96-.05-32.26-7.03-43.25-18.25,4.93-2.59,10.72-4.91,17.13-6.67,7.93-2.21,16.81-3.55,26.19-3.52,9.34,.03,18.2,1.47,26.1,3.75,6.35,1.85,12.1,4.23,16.99,6.85Z"/><line class="cls-1" x1="51.68" y1="112.45" x2="158.13" y2="112.74"/><line class="cls-1" x1="100.18" y1="51.82" x2="100.18" y2="173.32"/><g><path class="cls-1" d="M155.83,50.15c0,3.68-.84,7.15-2.35,10.25-3.81,7.83-21.13,32.07-21.13,32.07,0,0-16.91-23.96-20.83-31.47-1.69-3.25-2.65-6.94-2.65-10.85,0-12.97,10.51-23.48,23.48-23.48s23.48,10.51,23.48,23.48Z"/><path class="cls-1" d="M141.91,50.15c0,5.29-4.28,9.57-9.57,9.57s-9.57-4.28-9.57-9.57,4.28-9.57,9.57-9.57,9.57,4.28,9.57,9.57Z"/></g></g></svg>