<?xml version="1.0" encoding="UTF-8"?><svg id="Layer_1" xmlns="http://www.w3.org/2000/svg" viewBox="0 0 200 200"><defs><style>.cls-1{fill:none;stroke:#484751;stroke-linecap:round;stroke-linejoin:round;stroke-width:5.26px;}</style></defs><g id="_1"><polyline class="cls-1" points="56.44 150.98 15.36 150.98 42.51 103.32 69.67 150.98 91.09 150.98"/><polyline class="cls-1" points="125.62 117.1 104.83 150.98 171.41 150.98"/><polyline class="cls-1" points="184.64 150.98 144.73 85.96 132.95 105.16"/><line class="cls-1" x1="135.27" y1="101.15" x2="142.29" y2="89.94"/><polyline class="cls-1" points="128.44 101.15 131.73 106.81 135.27 101.15"/><polyline class="cls-1" points="59.51 111.39 98.15 49.02 128.44 101.15"/><circle class="cls-1" cx="43.17" cy="65.22" r="10.88"/><polyline class="cls-1" points="82.38 76.1 87.07 80.68 91.77 76.1 96.46 80.68 101.16 76.1 105.86 80.68"/><polyline class="cls-1" points="32.17 123.43 36.48 127.63 40.79 123.43 45.11 127.63"/><polyline class="cls-1" points="133.22 107.95 137.62 112.06 141.84 107.76 146.24 111.87 148.75 109.36"/><path class="cls-1" d="M144.73,66.89c-4.15,0-9.35,2.09-9.35,6.19"/><path class="cls-1" d="M126.02,66.89c4.15,0,9.35,2.09,9.35,6.19"/></g></svg>